<?xml version="1.0" encoding="utf-8"?>
<!-- Generator: Adobe Illustrator 18.1.1, SVG Export Plug-In . SVG Version: 6.00 Build 0)  -->
<svg version="1.1" id="Layer_1" xmlns="http://www.w3.org/2000/svg" xmlns:xlink="http://www.w3.org/1999/xlink" x="0px" y="0px"
   viewBox="25 111 760 760" enable-background="new 25 111 760 760" xml:space="preserve">
<g>
  <path fill="#CCCCCC" d="M722.1,292.8H599.3l-73.5-74.2c0,0-0.4-0.4-0.6-0.4l-0.4-0.4c-10.9-10.9-25.6-17.8-42.3-17.8H329.9
    c-17.8,0-33.6,7.6-44.7,19.8v0.1l-71.9,72.7H87.9c-33.8,0-61.1,26.5-61.1,60.4v367.5c0,33.8,27.3,61.2,61.1,61.2h634.2
    c33.6,0,61.1-27.4,61.1-61.2V353.2C783.2,319.4,755.7,292.8,722.1,292.8z M405,690.1c-92.5,0-168-75.6-168-168.4
    c0-92.9,75.5-168.4,168-168.4c92.7,0,168,75.5,168,168.4C573,614.5,497.7,690.1,405,690.1z M710.6,390.1c-14,0-25.5-11.4-25.5-25.6
    s11.5-25.7,25.5-25.7s25.5,11.4,25.5,25.7C736.1,378.6,724.6,390.1,710.6,390.1z"/>
  <path fill="#CCCCCC" d="M405,394.4c-70.2,0-126.9,56.9-126.9,127.3c0,70.2,56.7,127.3,126.9,127.3c70,0,126.9-56.9,126.9-127.3
    S475,394.4,405,394.4z"/>
</g>
</svg>